<?xml version="1.0" encoding="UTF-8"?>
<svg version="1.1" xmlns="http://www.w3.org/2000/svg" width="600" height="600">
<path d="M0 0 C198 0 396 0 600 0 C600 198 600 396 600 600 C402 600 204 600 0 600 C0 402 0 204 0 0 Z " fill="#FEFEFE" transform="translate(0,0)"/>
<path d="M0 0 C16.44181394 13.15345115 27.34994275 28.50918058 37.09082031 47.03515625 C37.62425049 48.04795654 38.15768066 49.06075684 38.70727539 50.10424805 C39.19736084 51.055979 39.68744629 52.00770996 40.19238281 52.98828125 C40.63146973 53.84067383 41.07055664 54.69306641 41.52294922 55.57128906 C42.46582031 57.78515625 42.46582031 57.78515625 42.46582031 60.78515625 C43.33118408 60.6250708 44.19654785 60.46498535 45.08813477 60.30004883 C70.55307681 56.41818668 97.427206 60.77397582 118.96582031 75.22265625 C136.75213612 88.69991617 148.91047322 104.46084537 155.46582031 125.78515625 C155.76101563 126.69136719 156.05621094 127.59757813 156.36035156 128.53125 C159.90220338 139.71512691 160.90971986 150.4251986 160.90332031 162.09765625 C160.90372314 162.84915955 160.90412598 163.60066284 160.90454102 164.37493896 C160.81820506 192.37830378 151.70777925 216.06548402 132.54394531 236.73828125 C122.23552174 246.89169094 109.74033761 254.2114346 96.46582031 259.78515625 C95.40492188 260.26984375 94.34402344 260.75453125 93.25097656 261.25390625 C69.0810027 271.53754607 39.26159737 270.94911499 15.02832031 261.41015625 C-7.28708698 251.30041372 -24.54194052 235.86065764 -33.47558594 212.73828125 C-33.82492187 211.76375 -34.17425781 210.78921875 -34.53417969 209.78515625 C-35.10458984 208.19960938 -35.10458984 208.19960938 -35.68652344 206.58203125 C-38.17714926 199.38492033 -39.6683069 192.95187005 -39.63183594 185.29296875 C-39.62861328 184.09414063 -39.62539063 182.8953125 -39.62207031 181.66015625 C-39.61369141 180.42265625 -39.6053125 179.18515625 -39.59667969 177.91015625 C-39.59216797 176.64945313 -39.58765625 175.38875 -39.58300781 174.08984375 C-39.57125928 170.98823239 -39.55483136 167.886719 -39.53417969 164.78515625 C-39.20417969 164.78515625 -38.87417969 164.78515625 -38.53417969 164.78515625 C-38.36402344 165.83832031 -38.19386719 166.89148438 -38.01855469 167.9765625 C-34.3595599 190.07513513 -28.40741726 210.21033912 -12.53417969 226.78515625 C-11.94765625 227.42324219 -11.36113281 228.06132812 -10.75683594 228.71875 C-8.79519054 230.64605587 -6.78231942 232.19909003 -4.53417969 233.78515625 C-3.53128906 234.5121875 -2.52839844 235.23921875 -1.49511719 235.98828125 C13.48184374 245.63569689 33.97068648 243.6276282 50.77832031 240.22265625 C68.89591898 235.98498725 84.79214183 227.41832171 95.46582031 211.78515625 C103.37163908 198.58183233 104.82228409 184.0263261 104.90332031 168.97265625 C104.91339111 167.75723145 104.92346191 166.54180664 104.93383789 165.28955078 C104.85789734 157.37773037 103.74303993 150.35304311 101.46582031 142.78515625 C101.2725415 142.10203369 101.0792627 141.41891113 100.88012695 140.71508789 C98.28258318 131.83170779 94.41287171 124.84078422 88.46582031 117.78515625 C87.95664062 117.15222656 87.44746094 116.51929688 86.92285156 115.8671875 C75.39226916 102.9138083 58.01237163 98.16217229 41.46582031 95.78515625 C39.30290864 95.70744385 37.13791559 95.67719389 34.97363281 95.6875 C33.77480469 95.69072266 32.57597656 95.69394531 31.34082031 95.69726562 C30.10332031 95.70564453 28.86582031 95.71402344 27.59082031 95.72265625 C26.33011719 95.72716797 25.06941406 95.73167969 23.77050781 95.73632812 C20.66889645 95.74807665 17.56738306 95.76450458 14.46582031 95.78515625 C14.26988281 94.88796875 14.07394531 93.99078125 13.87207031 93.06640625 C7.88355148 68.07982769 -6.6288297 48.34932314 -28.53417969 34.78515625 C-44.60887494 25.43037808 -61.20555557 23.40935211 -79.15991211 27.80566406 C-90.71116194 30.9865392 -101.64062808 36.74213141 -110.53417969 44.78515625 C-111.14390625 45.31496094 -111.75363281 45.84476562 -112.38183594 46.390625 C-125.78213969 58.78958738 -132.00518294 77.20119061 -134.53417969 94.78515625 C-137.53613889 95.78580932 -140.29895673 96.09415584 -143.4362793 96.38012695 C-156.91069691 97.62851066 -169.44822077 100.46028854 -181.53417969 106.78515625 C-183.0153125 107.55666016 -183.0153125 107.55666016 -184.52636719 108.34375 C-191.74976053 112.32304939 -197.70948298 116.96045954 -203.53417969 122.78515625 C-204.23285156 123.48382813 -204.93152344 124.1825 -205.65136719 124.90234375 C-216.3354424 136.25157539 -225.64605652 151.90142288 -225.66699219 167.8828125 C-225.66924805 168.84292236 -225.67150391 169.80303223 -225.67382812 170.79223633 C-225.66899414 171.8005249 -225.66416016 172.80881348 -225.65917969 173.84765625 C-225.6543457 174.88752686 -225.64951172 175.92739746 -225.64453125 176.9987793 C-225.38579505 210.00575639 -215.00047708 240.11876149 -192.34667969 264.47265625 C-149.35954399 305.64980729 -79.46713933 302.86913022 -24.46337891 301.96435547 C-4.7664624 301.53065117 14.86506747 299.6792561 34.46582031 297.78515625 C35.64668213 297.67153748 36.82754395 297.5579187 38.04418945 297.44085693 C66.29878546 294.70780479 94.47295732 291.56983813 122.57917786 287.59136963 C130.41522193 286.49361829 138.27568623 285.61024871 146.14331055 284.77270508 C151.78388398 284.15816602 157.3146457 283.29751193 162.88916016 282.24243164 C166.56663001 281.58979747 170.25026319 281.2071148 173.96582031 280.84765625 C180.33801544 280.18827728 186.64540733 279.32838793 192.96582031 278.28515625 C199.85846816 277.14927602 206.7372689 276.2714829 213.68530273 275.55688477 C219.25188448 274.96627733 224.75642184 274.13719143 230.27832031 273.22265625 C237.67245541 271.99923143 244.97443667 271.17519238 252.46582031 270.78515625 C248.76958993 273.24930984 245.24093164 273.74203677 240.95019531 274.4921875 C240.06005737 274.65375839 239.16991943 274.81532928 238.25280762 274.98179626 C235.24160787 275.52689134 232.228736 276.06213354 229.21582031 276.59765625 C227.06822528 276.98460808 224.92076787 277.37232436 222.7734375 277.76074219 C219.26100936 278.39578692 215.74844903 279.0300406 212.2354126 279.66171265 C202.29743733 281.44894076 192.36531532 283.26684681 182.43457031 285.09375 C180.87258357 285.38090999 179.31059218 285.66804473 177.74859619 285.95515442 C171.56811011 287.09126588 165.38763612 288.22744196 159.20739746 289.36489868 C142.74294505 292.39407099 126.27348588 295.37662125 109.76934814 298.18280029 C103.86050209 299.18875167 97.96958974 300.2410037 92.09082031 301.41015625 C84.93043258 302.78211429 77.73393977 303.72847497 70.49755859 304.60791016 C65.30495489 305.24750408 60.14137933 305.9889309 54.97877502 306.83349609 C43.59350456 308.69197075 32.18353065 310.0488102 20.71582031 311.28515625 C18.7342012 311.50152653 16.75259327 311.71799922 14.77099609 311.93457031 C3.29926426 313.18248237 -8.17601187 314.39705321 -19.65917969 315.53515625 C-21.37572754 315.70821289 -21.37572754 315.70821289 -23.12695312 315.88476562 C-42.16006526 317.71433947 -61.17305647 318.02592133 -80.28417969 318.03515625 C-82.17537033 318.03616837 -82.17537033 318.03616837 -84.10476685 318.03720093 C-139.31558117 317.99034493 -202.82229669 311.24594072 -244.53417969 270.78515625 C-253.11363051 262.06051472 -259.66094803 252.47807079 -265.53417969 241.78515625 C-266.27087891 240.49544922 -266.27087891 240.49544922 -267.02246094 239.1796875 C-271.00948684 231.81047863 -273.28146852 223.81436127 -275.53417969 215.78515625 C-275.83453125 214.72425781 -276.13488281 213.66335938 -276.44433594 212.5703125 C-282.14586956 190.30854552 -283.41507194 164.06126327 -277.53417969 141.78515625 C-277.13392578 140.26341797 -277.13392578 140.26341797 -276.72558594 138.7109375 C-268.33959928 110.79491971 -248.8621663 86.9309437 -223.53417969 72.78515625 C-222.57898438 72.23988281 -221.62378906 71.69460937 -220.63964844 71.1328125 C-212.87991618 66.96102758 -204.83192997 64.5128463 -196.35644531 62.27392578 C-194.92300375 61.88944695 -193.49968109 61.46722913 -192.08105469 61.03125 C-188.40527924 59.99653368 -184.8023329 59.69573582 -180.99511719 59.671875 C-179.76039673 59.66377808 -179.76039673 59.66377808 -178.50073242 59.65551758 C-174.84405597 59.66222449 -171.19017773 59.714166 -167.53417969 59.78515625 C-167.46070313 59.14449219 -167.38722656 58.50382812 -167.31152344 57.84375 C-160.77256127 32.1150697 -136.74432752 7.1604398 -114.84667969 -6.58984375 C-77.15750197 -28.75994829 -34.7378218 -27.5072249 0 0 Z " fill="#26359C" transform="translate(310.5341796875,152.21484375)"/>
<path d="M0 0 C-2.84048241 1.89365494 -4.10452314 2.381284 -7.33203125 2.96142578 C-8.63853638 3.20144821 -8.63853638 3.20144821 -9.97143555 3.44631958 C-10.90898682 3.61098724 -11.84653809 3.77565491 -12.8125 3.9453125 C-13.77776611 4.12005096 -14.74303223 4.29478943 -15.73754883 4.474823 C-17.7778901 4.84280105 -19.81884488 5.20739109 -21.86035156 5.56884766 C-24.9890211 6.12305522 -28.11569567 6.68755559 -31.2421875 7.25390625 C-33.22384973 7.60997993 -35.20561721 7.96546847 -37.1875 8.3203125 C-38.5938269 8.57338669 -38.5938269 8.57338669 -40.02856445 8.83157349 C-40.89956787 8.98528412 -41.77057129 9.13899475 -42.66796875 9.29736328 C-43.43391357 9.43345001 -44.1998584 9.56953674 -44.98901367 9.70974731 C-47 10 -47 10 -50 10 C-50 9.34 -50 8.68 -50 8 C-51.32 7.67 -52.64 7.34 -54 7 C-53.21882813 6.90203125 -52.43765625 6.8040625 -51.6328125 6.703125 C-41.79291355 5.43204674 -31.99194705 3.94469006 -22.18994141 2.40917969 C-5.62232248 -0.17569758 -5.62232248 -0.17569758 0 0 Z " fill="#3744A3" transform="translate(563,423)"/>
<path d="M0 0 C-3.45357969 2.30238646 -6.62422694 2.94676917 -10.625 3.6875 C-11.33978516 3.82196533 -12.05457031 3.95643066 -12.79101562 4.0949707 C-18.12160783 5.0198502 -22.65692606 5.04953238 -28 4 C-28 3.67 -28 3.34 -28 3 C-24.27153308 2.49468813 -20.54212492 1.9966867 -16.8125 1.5 C-15.22985352 1.28537109 -15.22985352 1.28537109 -13.61523438 1.06640625 C-12.08286133 0.86337891 -12.08286133 0.86337891 -10.51953125 0.65625 C-9.58214111 0.53056641 -8.64475098 0.40488281 -7.67895508 0.27539062 C-5.09682192 0.00995308 -2.59349011 -0.04936064 0 0 Z " fill="#818AC5" transform="translate(563,423)"/>
<path d="M0 0 C0.33 0 0.66 0 1 0 C1.66 5.28 2.32 10.56 3 16 C2.34 16 1.68 16 1 16 C1 19.63 1 23.26 1 27 C0.67 27 0.34 27 0 27 C0 18.09 0 9.18 0 0 Z " fill="#4653AA" transform="translate(271,317)"/>
<path d="M0 0 C0 0.33 0 0.66 0 1 C-1.98 1.33 -3.96 1.66 -6 2 C-5.67 2.66 -5.34 3.32 -5 4 C-5.99 4 -6.98 4 -8 4 C-8 3.34 -8 2.68 -8 2 C-9.32 1.67 -10.64 1.34 -12 1 C-8.0186217 -0.3271261 -4.14954773 -0.06915913 0 0 Z " fill="#5863B2" transform="translate(521,429)"/>
</svg>
