<svg width="200" height="200" version="1.1" xmlns="http://www.w3.org/2000/svg" desc="Created with imagetracer.js version 1.2.6" ><path fill="rgb(222,222,222)" stroke="rgb(222,222,222)" stroke-width="1" opacity="0.8941176470588236" d="M 96.5 7 L 104 7.5 L 96.5 8 L 96.5 7 Z " /><path fill="rgb(222,222,222)" stroke="rgb(222,222,222)" stroke-width="1" opacity="0.8941176470588236" d="M 42.5 27 L 41.5 29 L 42.5 27 Z " /><path fill="rgb(222,222,222)" stroke="rgb(222,222,222)" stroke-width="1" opacity="0.8941176470588236" d="M 153.5 29 L 154.5 31 L 153.5 29 Z " /><path fill="rgb(222,222,222)" stroke="rgb(222,222,222)" stroke-width="1" opacity="0.8941176470588236" d="M 67.5 32 L 68.5 34 L 67.5 32 Z " /><path fill="rgb(222,222,222)" stroke="rgb(222,222,222)" stroke-width="1" opacity="0.8941176470588236" d="M 133.5 32 L 130.5 36 L 133.5 32 Z " /><path fill="rgb(222,222,222)" stroke="rgb(222,222,222)" stroke-width="1" opacity="0.8941176470588236" d="M 163.5 32 L 167.5 37 L 163.5 32 Z " /><path fill="rgb(222,222,222)" stroke="rgb(222,222,222)" stroke-width="1" opacity="0.8941176470588236" d="M 52.5 34 L 46.5 41 L 52.5 34 Z " /><path fill="rgb(222,222,222)" stroke="rgb(222,222,222)" stroke-width="1" opacity="0.8941176470588236" d="M 159.5 34 L 166.5 42 L 159.5 34 Z " /><path fill="rgb(222,222,222)" stroke="rgb(222,222,222)" stroke-width="1" opacity="0.8941176470588236" d="M 39.5 35 L 35.5 40 L 39.5 35 Z " /><path fill="rgb(222,222,222)" stroke="rgb(222,222,222)" stroke-width="1" opacity="0.8941176470588236" d="M 149.5 35 L 154.5 41 L 149.5 35 Z " /><path fill="rgb(222,222,222)" stroke="rgb(222,222,222)" stroke-width="1" opacity="0.8941176470588236" d="M 28.5 41 L 27.5 43 L 28.5 41 Z " /><path fill="rgb(222,222,222)" stroke="rgb(222,222,222)" stroke-width="1" opacity="0.8941176470588236" d="M 172.5 42 L 173.5 44 L 172.5 42 Z " /><path fill="rgb(222,222,222)" stroke="rgb(222,222,222)" stroke-width="1" opacity="0.8941176470588236" d="M 91.5 46 L 90.5 48 L 91.5 46 Z " /><path fill="rgb(222,222,222)" stroke="rgb(222,222,222)" stroke-width="1" opacity="0.8941176470588236" d="M 109.5 46 L 110.5 48 L 109.5 46 Z " /><path fill="rgb(222,222,222)" stroke="rgb(222,222,222)" stroke-width="1" opacity="0.8941176470588236" d="M 48.5 50 L 50.5 53 L 48.5 50 Z " /><path fill="rgb(222,222,222)" stroke="rgb(222,222,222)" stroke-width="1" opacity="0.8941176470588236" d="M 166.5 50 L 167.5 52 L 166.5 50 Z " /><path fill="rgb(222,222,222)" stroke="rgb(222,222,222)" stroke-width="1" opacity="0.8941176470588236" d="M 151.5 51 L 150.5 53 L 151.5 51 Z " /><path fill="rgb(222,222,222)" stroke="rgb(222,222,222)" stroke-width="1" opacity="0.8941176470588236" d="M 54.5 57 L 56.5 60 L 54.5 57 Z " /><path fill="rgb(222,222,222)" stroke="rgb(222,222,222)" stroke-width="1" opacity="0.8941176470588236" d="M 60.5 68 L 59.5 70 L 60.5 68 Z " /><path fill="rgb(222,222,222)" stroke="rgb(222,222,222)" stroke-width="1" opacity="0.8941176470588236" d="M 140.5 68 L 141.5 70 L 140.5 68 Z " /><path fill="rgb(222,222,222)" stroke="rgb(222,222,222)" stroke-width="1" opacity="0.8941176470588236" d="M 74.5 70 L 75.5 72 L 74.5 70 Z " /><path fill="rgb(222,222,222)" stroke="rgb(222,222,222)" stroke-width="1" opacity="0.8941176470588236" d="M 55.5 71 L 58 71.5 L 55.5 72 L 55.5 71 Z " /><path fill="rgb(222,222,222)" stroke="rgb(222,222,222)" stroke-width="1" opacity="0.8941176470588236" d="M 143.5 71 L 146 71.5 L 143.5 72 L 143.5 71 Z " /><path fill="rgb(222,222,222)" stroke="rgb(222,222,222)" stroke-width="1" opacity="0.8941176470588236" d="M 136.5 73 L 138.5 76 L 136.5 73 Z " /><path fill="rgb(222,222,222)" stroke="rgb(222,222,222)" stroke-width="1" opacity="0.8941176470588236" d="M 80.5 75 L 81.5 77 L 80.5 75 Z " /><path fill="rgb(222,222,222)" stroke="rgb(222,222,222)" stroke-width="1" opacity="0.8941176470588236" d="M 138.5 77 L 137.5 79 L 138.5 77 Z " /><path fill="rgb(222,222,222)" stroke="rgb(222,222,222)" stroke-width="1" opacity="0.8941176470588236" d="M 70.5 79 L 71.5 81 L 70.5 79 Z " /><path fill="rgb(222,222,222)" stroke="rgb(222,222,222)" stroke-width="1" opacity="0.8941176470588236" d="M 86.5 80 L 87.5 82 L 86.5 80 Z " /><path fill="rgb(222,222,222)" stroke="rgb(222,222,222)" stroke-width="1" opacity="0.8941176470588236" d="M 34.5 83 L 37 83.5 L 34.5 84 L 34.5 83 Z " /><path fill="rgb(222,222,222)" stroke="rgb(222,222,222)" stroke-width="1" opacity="0.8941176470588236" d="M 131.5 83 L 130.5 85 L 131.5 83 Z " /><path fill="rgb(222,222,222)" stroke="rgb(222,222,222)" stroke-width="1" opacity="0.8941176470588236" d="M 164.5 83 L 167 83.5 L 164.5 84 L 164.5 83 Z " /><path fill="rgb(222,222,222)" stroke="rgb(222,222,222)" stroke-width="1" opacity="0.8941176470588236" d="M 76.5 84 L 77.5 86 L 76.5 84 Z " /><path fill="rgb(222,222,222)" stroke="rgb(222,222,222)" stroke-width="1" opacity="0.8941176470588236" d="M 92.5 85 L 93.5 87 L 92.5 85 Z " /><path fill="rgb(222,222,222)" stroke="rgb(222,222,222)" stroke-width="1" opacity="0.8941176470588236" d="M 118.5 87 L 117.5 89 L 118.5 87 Z " /><path fill="rgb(222,222,222)" stroke="rgb(222,222,222)" stroke-width="1" opacity="0.8941176470588236" d="M 20.5 88 L 18.5 91 L 20.5 88 Z " /><path fill="rgb(222,222,222)" stroke="rgb(222,222,222)" stroke-width="1" opacity="0.8941176470588236" d="M 82.5 89 L 83.5 91 L 82.5 89 Z " /><path fill="rgb(222,222,222)" stroke="rgb(222,222,222)" stroke-width="1" opacity="0.8941176470588236" d="M 124.5 89 L 122.5 92 L 124.5 89 Z " /><path fill="rgb(222,222,222)" stroke="rgb(222,222,222)" stroke-width="1" opacity="0.8941176470588236" d="M 179.5 89 L 181.5 92 L 179.5 89 Z " /><path fill="rgb(222,222,222)" stroke="rgb(222,222,222)" stroke-width="1" opacity="0.8941176470588236" d="M 100.5 91 L 101.5 93 L 100.5 91 Z " /><path fill="rgb(222,222,222)" stroke="rgb(222,222,222)" stroke-width="1" opacity="0.8941176470588236" d="M 113.5 91 L 112.5 93 L 113.5 91 Z " /><path fill="rgb(222,222,222)" stroke="rgb(222,222,222)" stroke-width="1" opacity="0.8941176470588236" d="M 192.5 93 L 193 95.5 L 192 95.5 L 192.5 93 Z " /><path fill="rgb(222,222,222)" stroke="rgb(222,222,222)" stroke-width="1" opacity="0.8941176470588236" d="M 88.5 94 L 89.5 96 L 88.5 94 Z " /><path fill="rgb(222,222,222)" stroke="rgb(222,222,222)" stroke-width="1" opacity="0.8941176470588236" d="M 188.5 95 L 189 104.5 L 188 104.5 L 188.5 95 Z " /><path fill="rgb(222,222,222)" stroke="rgb(222,222,222)" stroke-width="1" opacity="0.8941176470588236" d="M 7.5 96 L 8 103.5 L 7 103.5 L 7.5 96 Z " /><path fill="rgb(222,222,222)" stroke="rgb(222,222,222)" stroke-width="1" opacity="0.8941176470588236" d="M 116.5 96 L 114.5 99 L 116.5 96 Z " /><path fill="rgb(222,222,222)" stroke="rgb(222,222,222)" stroke-width="1" opacity="0.8941176470588236" d="M 91.5 97 L 92.5 99 L 91.5 97 Z " /><path fill="rgb(222,222,222)" stroke="rgb(222,222,222)" stroke-width="1" opacity="0.8941176470588236" d="M 18.5 98 L 19 100.5 L 18 100.5 L 18.5 98 Z " /><path fill="rgb(222,222,222)" stroke="rgb(222,222,222)" stroke-width="1" opacity="0.8941176470588236" d="M 94.5 99 L 95.5 101 L 94.5 99 Z " /><path fill="rgb(222,222,222)" stroke="rgb(222,222,222)" stroke-width="1" opacity="0.8941176470588236" d="M 109.5 99 L 112 100.5 L 110.5 101 L 109.5 99 Z " /><path fill="rgb(222,222,222)" stroke="rgb(222,222,222)" stroke-width="1" opacity="0.8941176470588236" d="M 100.5 104 L 101.5 106 L 100.5 104 Z " /><path fill="rgb(222,222,222)" stroke="rgb(222,222,222)" stroke-width="1" opacity="0.8941176470588236" d="M 115.5 104 L 116.5 106 L 115.5 104 Z " /><path fill="rgb(222,222,222)" stroke="rgb(222,222,222)" stroke-width="1" opacity="0.8941176470588236" d="M 192.5 104 L 193 106.5 L 192 106.5 L 192.5 104 Z " /><path fill="rgb(222,222,222)" stroke="rgb(222,222,222)" stroke-width="1" opacity="0.8941176470588236" d="M 94.5 106 L 93.5 108 L 94.5 106 Z " /><path fill="rgb(222,222,222)" stroke="rgb(222,222,222)" stroke-width="1" opacity="0.8941176470588236" d="M 101.5 109 L 100.5 111 L 101.5 109 Z " /><path fill="rgb(222,222,222)" stroke="rgb(222,222,222)" stroke-width="1" opacity="0.8941176470588236" d="M 106.5 109 L 107.5 111 L 106.5 109 Z " /><path fill="rgb(222,222,222)" stroke="rgb(222,222,222)" stroke-width="1" opacity="0.8941176470588236" d="M 121.5 109 L 122.5 111 L 121.5 109 Z " /><path fill="rgb(222,222,222)" stroke="rgb(222,222,222)" stroke-width="1" opacity="0.8941176470588236" d="M 127.5 114 L 128.5 116 L 127.5 114 Z " /><path fill="rgb(222,222,222)" stroke="rgb(222,222,222)" stroke-width="1" opacity="0.8941176470588236" d="M 65.5 115 L 64.5 117 L 65.5 115 Z " /><path fill="rgb(222,222,222)" stroke="rgb(222,222,222)" stroke-width="1" opacity="0.8941176470588236" d="M 94.5 115 L 92.5 118 L 94.5 115 Z " /><path fill="rgb(222,222,222)" stroke="rgb(222,222,222)" stroke-width="1" opacity="0.8941176470588236" d="M 80.5 117 L 79.5 119 L 80.5 117 Z " /><path fill="rgb(222,222,222)" stroke="rgb(222,222,222)" stroke-width="1" opacity="0.8941176470588236" d="M 117.5 118 L 118.5 120 L 117.5 118 Z " /><path fill="rgb(222,222,222)" stroke="rgb(222,222,222)" stroke-width="1" opacity="0.8941176470588236" d="M 149.5 118 L 151 118.5 L 147.5 121 L 149.5 118 Z " /><path fill="rgb(222,222,222)" stroke="rgb(222,222,222)" stroke-width="1" opacity="0.8941176470588236" d="M 133.5 119 L 134.5 121 L 133.5 119 Z " /><path fill="rgb(222,222,222)" stroke="rgb(222,222,222)" stroke-width="1" opacity="0.8941176470588236" d="M 87.5 121 L 85.5 124 L 87.5 121 Z " /><path fill="rgb(222,222,222)" stroke="rgb(222,222,222)" stroke-width="1" opacity="0.8941176470588236" d="M 55.5 122 L 58 122.5 L 55.5 123 L 55.5 122 Z " /><path fill="rgb(222,222,222)" stroke="rgb(222,222,222)" stroke-width="1" opacity="0.8941176470588236" d="M 60.5 122 L 61.5 124 L 60.5 122 Z " /><path fill="rgb(222,222,222)" stroke="rgb(222,222,222)" stroke-width="1" opacity="0.8941176470588236" d="M 123.5 123 L 124.5 125 L 123.5 123 Z " /><path fill="rgb(222,222,222)" stroke="rgb(222,222,222)" stroke-width="1" opacity="0.8941176470588236" d="M 156.5 123 L 157 124.5 L 155 125.5 L 156.5 123 Z " /><path fill="rgb(222,222,222)" stroke="rgb(222,222,222)" stroke-width="1" opacity="0.8941176470588236" d="M 139.5 124 L 140.5 126 L 139.5 124 Z " /><path fill="rgb(222,222,222)" stroke="rgb(222,222,222)" stroke-width="1" opacity="0.8941176470588236" d="M 166.5 124 L 168.5 127 L 166.5 124 Z " /><path fill="rgb(222,222,222)" stroke="rgb(222,222,222)" stroke-width="1" opacity="0.8941176470588236" d="M 80.5 127 L 79.5 129 L 80.5 127 Z " /><path fill="rgb(222,222,222)" stroke="rgb(222,222,222)" stroke-width="1" opacity="0.8941176470588236" d="M 52.5 128 L 56 128.5 L 52.5 129 L 52.5 128 Z " /><path fill="rgb(222,222,222)" stroke="rgb(222,222,222)" stroke-width="1" opacity="0.8941176470588236" d="M 129.5 128 L 130.5 130 L 129.5 128 Z " /><path fill="rgb(222,222,222)" stroke="rgb(222,222,222)" stroke-width="1" opacity="0.8941176470588236" d="M 151.5 129 L 152 130.5 L 150 131.5 L 151.5 129 Z " /><path fill="rgb(222,222,222)" stroke="rgb(222,222,222)" stroke-width="1" opacity="0.8941176470588236" d="M 171.5 131 L 170.5 133 L 171.5 131 Z " /><path fill="rgb(222,222,222)" stroke="rgb(222,222,222)" stroke-width="1" opacity="0.8941176470588236" d="M 135.5 133 L 136.5 135 L 135.5 133 Z " /><path fill="rgb(222,222,222)" stroke="rgb(222,222,222)" stroke-width="1" opacity="0.8941176470588236" d="M 146.5 135 L 147 136.5 L 145 137.5 L 146.5 135 Z " /><path fill="rgb(222,222,222)" stroke="rgb(222,222,222)" stroke-width="1" opacity="0.8941176470588236" d="M 105.5 136 L 109.5 141 L 105.5 136 Z " /><path fill="rgb(222,222,222)" stroke="rgb(222,222,222)" stroke-width="1" opacity="0.8941176470588236" d="M 166.5 137 L 165.5 139 L 166.5 137 Z " /><path fill="rgb(222,222,222)" stroke="rgb(222,222,222)" stroke-width="1" opacity="0.8941176470588236" d="M 59.5 138 L 57.5 141 L 59.5 138 Z " /><path fill="rgb(222,222,222)" stroke="rgb(222,222,222)" stroke-width="1" opacity="0.8941176470588236" d="M 132.5 138 L 131.5 140 L 132.5 138 Z " /><path fill="rgb(222,222,222)" stroke="rgb(222,222,222)" stroke-width="1" opacity="0.8941176470588236" d="M 141.5 141 L 142 142.5 L 139 144.5 L 141.5 141 Z " /><path fill="rgb(222,222,222)" stroke="rgb(222,222,222)" stroke-width="1" opacity="0.8941176470588236" d="M 42.5 143 L 41.5 145 L 42.5 143 Z " /><path fill="rgb(222,222,222)" stroke="rgb(222,222,222)" stroke-width="1" opacity="0.8941176470588236" d="M 161.5 143 L 160.5 145 L 161.5 143 Z " /><path fill="rgb(222,222,222)" stroke="rgb(222,222,222)" stroke-width="1" opacity="0.8941176470588236" d="M 136.5 147 L 136 148.5 L 134.5 151 L 135 149.5 L 136.5 147 Z " /><path fill="rgb(222,222,222)" stroke="rgb(222,222,222)" stroke-width="1" opacity="0.8941176470588236" d="M 156.5 149 L 155.5 151 L 156.5 149 Z " /><path fill="rgb(222,222,222)" stroke="rgb(222,222,222)" stroke-width="1" opacity="0.8941176470588236" d="M 29.5 153 L 30.5 155 L 29.5 153 Z " /><path fill="rgb(222,222,222)" stroke="rgb(222,222,222)" stroke-width="1" opacity="0.8941176470588236" d="M 151.5 155 L 150.5 157 L 151.5 155 Z " /><path fill="rgb(222,222,222)" stroke="rgb(222,222,222)" stroke-width="1" opacity="0.8941176470588236" d="M 135.5 156 L 136.5 158 L 135.5 156 Z " /><path fill="rgb(222,222,222)" stroke="rgb(222,222,222)" stroke-width="1" opacity="0.8941176470588236" d="M 167.5 157 L 164.5 161 L 167.5 157 Z " /><path fill="rgb(222,222,222)" stroke="rgb(222,222,222)" stroke-width="1" opacity="0.8941176470588236" d="M 86.5 158 L 87.5 160 L 86.5 158 Z " /><path fill="rgb(222,222,222)" stroke="rgb(222,222,222)" stroke-width="1" opacity="0.8941176470588236" d="M 34.5 159 L 41.5 167 L 34.5 159 Z " /><path fill="rgb(222,222,222)" stroke="rgb(222,222,222)" stroke-width="1" opacity="0.8941176470588236" d="M 141.5 161 L 142.5 163 L 141.5 161 Z " /><path fill="rgb(222,222,222)" stroke="rgb(222,222,222)" stroke-width="1" opacity="0.8941176470588236" d="M 169.5 161 L 161.5 170 L 169.5 161 Z " /><path fill="rgb(222,222,222)" stroke="rgb(222,222,222)" stroke-width="1" opacity="0.8941176470588236" d="M 145.5 162 L 144.5 164 L 145.5 162 Z " /><path fill="rgb(222,222,222)" stroke="rgb(222,222,222)" stroke-width="1" opacity="0.8941176470588236" d="M 32.5 163 L 36.5 168 L 32.5 163 Z " /><path fill="rgb(222,222,222)" stroke="rgb(222,222,222)" stroke-width="1" opacity="0.8941176470588236" d="M 160.5 164 L 157.5 168 L 160.5 164 Z " /><path fill="rgb(222,222,222)" stroke="rgb(222,222,222)" stroke-width="1" opacity="0.8941176470588236" d="M 115.5 171 L 112.5 175 L 115.5 171 Z " /><path fill="rgb(222,222,222)" stroke="rgb(222,222,222)" stroke-width="1" opacity="0.8941176470588236" d="M 42.5 172 L 43.5 174 L 42.5 172 Z " /><path fill="rgb(222,222,222)" stroke="rgb(222,222,222)" stroke-width="1" opacity="0.8941176470588236" d="M 85.5 172 L 86.5 174 L 85.5 172 Z " /><path fill="rgb(222,222,222)" stroke="rgb(222,222,222)" stroke-width="1" opacity="0.8941176470588236" d="M 95.5 188 L 105 188.5 L 95.5 189 L 95.5 188 Z " /><path fill="rgb(222,222,222)" stroke="rgb(222,222,222)" stroke-width="1" opacity="0.8941176470588236" d="M 93.5 192 L 96 192.5 L 93.5 193 L 93.5 192 Z " /><path fill="rgb(222,222,222)" stroke="rgb(222,222,222)" stroke-width="1" opacity="0.8941176470588236" d="M 104.5 192 L 107 192.5 L 104.5 193 L 104.5 192 Z " /><path fill="rgb(0,0,0)" stroke="rgb(0,0,0)" stroke-width="1" opacity="0" d="M 0 0 L 200 0 L 200 200 L 0 200 L 0 0 Z M 96 7 L 95 8 L 81 9 L 65 14 Q 49 21 38 31 Q 22 44 14 65 L 9 81 L 8 95 L 7 96 L 8 115 L 13 134 Q 19 150 30 162 Q 42 175 60 184 L 76 190 L 85 192 L 93 192 L 94 193 L 107 193 L 108 192 L 116 192 L 125 190 Q 146 184 161 171 Q 173 160 182 145 L 190 125 L 192 116 L 192 108 L 193 107 L 192 85 L 187 67 Q 180 50 169 38 Q 155 22 134 13 L 115 8 L 96 7 Z " /><path fill="rgb(0,0,0)" stroke="rgb(0,0,0)" stroke-width="1" opacity="0.996078431372549" d="M 165.5 164 L 164.5 166 L 165.5 164 Z " /><path fill="rgb(254,254,254)" stroke="rgb(254,254,254)" stroke-width="1" opacity="0.996078431372549" d="M 138.5 32 L 137.5 34 L 138.5 32 Z " /><path fill="rgb(254,254,254)" stroke="rgb(254,254,254)" stroke-width="1" opacity="0.996078431372549" d="M 147.5 33 L 148.5 35 L 147.5 33 Z " /><path fill="rgb(254,254,254)" stroke="rgb(254,254,254)" stroke-width="1" opacity="0.996078431372549" d="M 46.5 44 L 47.5 46 L 46.5 44 Z " /><path fill="rgb(254,254,254)" stroke="rgb(254,254,254)" stroke-width="1" opacity="0.996078431372549" d="M 154.5 44 L 153.5 46 L 154.5 44 Z " /><path fill="rgb(254,254,254)" stroke="rgb(254,254,254)" stroke-width="1" opacity="0.996078431372549" d="M 149.5 53 L 148.5 55 L 149.5 53 Z " /><path fill="rgb(254,254,254)" stroke="rgb(254,254,254)" stroke-width="1" opacity="0.996078431372549" d="M 66.5 76 L 67.5 78 L 66.5 76 Z " /><path fill="rgb(254,254,254)" stroke="rgb(254,254,254)" stroke-width="1" opacity="0.996078431372549" d="M 136.5 79 L 135.5 81 L 136.5 79 Z " /><path fill="rgb(254,254,254)" stroke="rgb(254,254,254)" stroke-width="1" opacity="0.996078431372549" d="M 72.5 81 L 73.5 83 L 72.5 81 Z " /><path fill="rgb(254,254,254)" stroke="rgb(254,254,254)" stroke-width="1" opacity="0.996078431372549" d="M 124.5 82 L 123.5 84 L 124.5 82 Z " /><path fill="rgb(254,254,254)" stroke="rgb(254,254,254)" stroke-width="1" opacity="0.996078431372549" d="M 129.5 85 L 128.5 87 L 129.5 85 Z " /><path fill="rgb(254,254,254)" stroke="rgb(254,254,254)" stroke-width="1" opacity="0.996078431372549" d="M 96.5 88 L 97.5 90 L 96.5 88 Z " /><path fill="rgb(254,254,254)" stroke="rgb(254,254,254)" stroke-width="1" opacity="0.996078431372549" d="M 100.5 89 L 99.5 91 L 100.5 89 Z " /><path fill="rgb(254,254,254)" stroke="rgb(254,254,254)" stroke-width="1" opacity="0.996078431372549" d="M 102.5 93 L 105 93.5 Q 102.9 96.8 102.5 93 Z " /><path fill="rgb(254,254,254)" stroke="rgb(254,254,254)" stroke-width="1" opacity="0.996078431372549" d="M 102.5 106 L 103.5 108 L 102.5 106 Z " /><path fill="rgb(254,254,254)" stroke="rgb(254,254,254)" stroke-width="1" opacity="0.996078431372549" d="M 81.5 111 L 80.5 113 L 81.5 111 Z " /><path fill="rgb(254,254,254)" stroke="rgb(254,254,254)" stroke-width="1" opacity="0.996078431372549" d="M 99.5 111 L 98.5 113 L 99.5 111 Z " /><path fill="rgb(254,254,254)" stroke="rgb(254,254,254)" stroke-width="1" opacity="0.996078431372549" d="M 113.5 115 L 114.5 117 L 113.5 115 Z " /><path fill="rgb(254,254,254)" stroke="rgb(254,254,254)" stroke-width="1" opacity="0.996078431372549" d="M 75.5 119 L 76.5 121 L 75.5 119 Z " /><path fill="rgb(254,254,254)" stroke="rgb(254,254,254)" stroke-width="1" opacity="0.996078431372549" d="M 159.5 120 L 157.5 123 L 159.5 120 Z " /><path fill="rgb(254,254,254)" stroke="rgb(254,254,254)" stroke-width="1" opacity="0.996078431372549" d="M 146.5 121 L 145.5 123 L 146.5 121 Z " /><path fill="rgb(254,254,254)" stroke="rgb(254,254,254)" stroke-width="1" opacity="0.996078431372549" d="M 137.5 122 L 138.5 124 L 137.5 122 Z " /><path fill="rgb(254,254,254)" stroke="rgb(254,254,254)" stroke-width="1" opacity="0.996078431372549" d="M 171.5 128 L 173 130.5 L 172 130.5 L 171.5 128 Z " /><path fill="rgb(254,254,254)" stroke="rgb(254,254,254)" stroke-width="1" opacity="0.996078431372549" d="M 149.5 132 L 147.5 135 L 149.5 132 Z " /><path fill="rgb(254,254,254)" stroke="rgb(254,254,254)" stroke-width="1" opacity="0.996078431372549" d="M 94.5 138 L 93.5 140 L 94.5 138 Z " /><path fill="rgb(254,254,254)" stroke="rgb(254,254,254)" stroke-width="1" opacity="0.996078431372549" d="M 144.5 138 L 142.5 141 L 144.5 138 Z " /><path fill="rgb(254,254,254)" stroke="rgb(254,254,254)" stroke-width="1" opacity="0.996078431372549" d="M 138.5 145 L 137.5 147 L 138.5 145 Z " /><path fill="rgb(254,254,254)" stroke="rgb(254,254,254)" stroke-width="1" opacity="0.996078431372549" d="M 133.5 151 L 132.5 153 L 133.5 151 Z " /><path fill="rgb(254,254,254)" stroke="rgb(254,254,254)" stroke-width="1" opacity="0.996078431372549" d="M 147.5 160 L 146.5 162 L 147.5 160 Z " /><path fill="rgb(254,254,254)" stroke="rgb(254,254,254)" stroke-width="1" opacity="0.996078431372549" d="M 163.5 161 L 161.5 164 L 163.5 161 Z " /><path fill="rgb(0,0,0)" stroke="rgb(0,0,0)" stroke-width="1" opacity="1" d="M 94.5 8 L 114.5 9 L 135.5 15 Q 156.9 24.6 171 41.5 Q 181.9 54.6 188 72.5 L 192 92.5 L 192 107.5 L 188 127.5 L 179 147.5 Q 170.3 161.8 157.5 172 Q 144.8 182.3 127.5 188 L 107.5 192 L 92.5 192 L 72.5 188 L 54.5 180 Q 39.6 171.4 29 158.5 Q 16.9 144.1 11 123.5 L 9 114.5 L 9 106.5 L 8 105.5 L 8 94.5 L 9 93.5 L 9 85.5 L 11 76.5 L 19 56.5 Q 27.5 41 40.5 30 L 62.5 16 L 76.5 11 L 85.5 9 L 93.5 9 L 94.5 8 Z M 91 11 L 67 17 L 45 30 Q 32 40 23 55 L 14 76 L 11 91 L 11 110 L 12 111 L 13 122 Q 20 145 34 161 Q 45 172 60 180 L 75 186 L 89 189 L 112 189 L 126 186 Q 146 180 160 167 Q 183 148 189 112 L 189 89 L 186 75 Q 179 54 166 40 Q 153 25 134 17 L 122 13 L 111 12 L 110 11 L 91 11 Z " /><path fill="rgb(0,0,0)" stroke="rgb(0,0,0)" stroke-width="1" opacity="1" d="M 97.5 16 Q 105.2 15.2 109 17 L 110 19.5 L 106 40.5 L 103.5 45 Q 98.3 46.3 97 43.5 L 91 20.5 L 93.5 17 L 97.5 16 Z " /><path fill="rgb(0,0,0)" stroke="rgb(0,0,0)" stroke-width="1" opacity="1" d="M 78.5 20 L 84 23.5 L 91 45.5 L 85.5 49 L 69 33.5 L 66 27.5 L 78.5 20 Z " /><path fill="rgb(0,0,0)" stroke="rgb(0,0,0)" stroke-width="1" opacity="1" d="M 122.5 20 L 135 27.5 Q 129.2 39.7 118.5 47 L 114.5 49 L 110 47 L 114 30.5 L 119.5 21 L 122.5 20 Z " /><path fill="rgb(0,0,0)" stroke="rgb(0,0,0)" stroke-width="1" opacity="1" d="M 56.5 32 Q 62.1 31.9 64 35.5 L 73 49.5 L 75 55.5 Q 74 59 68.5 58 L 47 43.5 Q 46.3 37.8 50.5 37 L 56.5 32 Z " /><path fill="rgb(0,0,0)" stroke="rgb(0,0,0)" stroke-width="1" opacity="1" d="M 142.5 32 L 144.5 32 L 153 39 L 154 43.5 L 136.5 56 Q 134.2 58.7 128.5 58 Q 125.5 57.5 126 53.5 L 139.5 33 L 142.5 32 Z " /><path fill="rgb(0,0,0)" stroke="rgb(0,0,0)" stroke-width="1" opacity="1" d="M 38.5 47 Q 47.5 45.5 49 51.5 L 61 66.5 L 57.5 71 L 49.5 69 L 31 60 L 30 57.5 L 38.5 47 Z " /><path fill="rgb(0,0,0)" stroke="rgb(0,0,0)" stroke-width="1" opacity="1" d="M 156.5 47 Q 164.5 45.5 166 50.5 L 171 57.5 L 170 60 L 151.5 69 L 143.5 71 L 140 66.5 L 156.5 47 Z " /><path fill="rgb(0,0,0)" stroke="rgb(0,0,0)" stroke-width="1" opacity="1" d="M 28.5 65 Q 42.6 69.4 53 77.5 L 50.5 83 L 23.5 82 L 21 79.5 L 23 69.5 L 25.5 66 L 28.5 65 Z " /><path fill="rgb(0,0,0)" stroke="rgb(0,0,0)" stroke-width="1" opacity="1" d="M 171.5 65 L 177 67 L 180 79.5 L 177.5 82 L 150.5 83 L 148 77.5 L 171.5 65 Z " /><path fill="rgb(0,0,0)" stroke="rgb(0,0,0)" stroke-width="1" opacity="1" d="M 69.5 69 L 75.5 72 L 143 128.5 Q 143.8 133.3 140.5 134 L 138.5 135 L 66 74.5 L 69.5 69 Z " /><path fill="rgb(0,0,0)" stroke="rgb(0,0,0)" stroke-width="1" opacity="1" d="M 131.5 69 L 133 72 L 103.5 93 L 101 92 L 102.5 89 L 131.5 69 Z " /><path fill="rgb(0,0,0)" stroke="rgb(0,0,0)" stroke-width="1" opacity="1" d="M 136.5 74 L 138 76.5 L 111.5 100 L 108.5 96 L 136.5 74 Z " /><path fill="rgb(0,0,0)" stroke="rgb(0,0,0)" stroke-width="1" opacity="1" d="M 22.5 88 L 28.5 88 L 48 92 L 48 97.5 L 46.5 98 L 26.5 104 L 20 104 Q 17.8 100.4 19 91.5 L 22.5 88 Z " /><path fill="rgb(0,0,0)" stroke="rgb(0,0,0)" stroke-width="1" opacity="1" d="M 170.5 89 Q 177.3 88.1 180 90 Q 182.3 93.6 181 102.5 Q 180.5 105.5 176.5 105 L 153 98 L 153 92 L 156.5 92 L 170.5 89 Z " /><path fill="rgb(0,0,0)" stroke="rgb(0,0,0)" stroke-width="1" opacity="1" d="M 89.5 98 L 94 100.5 L 75 116.5 L 74 124.5 L 70.5 128 L 67 130.5 Q 66.9 140.9 60.5 145 L 52.5 146 L 43.5 153 L 38.5 154 L 36 153 L 37.5 150 L 42 151 L 42 147 L 43.5 147 L 51.5 141 L 56.5 142 L 60 139.5 L 62 123.5 L 67.5 114 L 89.5 98 Z M 68 120 Q 65 121 66 125 Q 67 127 71 126 Q 73 125 72 122 Q 71 119 68 120 Z " /><path fill="rgb(0,0,0)" stroke="rgb(0,0,0)" stroke-width="1" opacity="1" d="M 97.5 105 Q 101.5 104.5 102 107.5 Q 102.8 109.8 100.5 109 L 80.5 127 Q 78.8 129.8 73.5 129 L 76 125.5 Q 76.3 120.8 79.5 119 L 97.5 105 Z " /><path fill="rgb(0,0,0)" stroke="rgb(0,0,0)" stroke-width="1" opacity="1" d="M 149.5 119 L 158 120.5 L 132.5 151 Q 129.9 151.8 131 148.5 L 129 143.5 L 135.5 136 L 138.5 137 L 144 133.5 L 145 127.5 L 144 125.5 L 149.5 119 Z " /><path fill="rgb(0,0,0)" stroke="rgb(0,0,0)" stroke-width="1" opacity="1" d="M 160.5 121 L 171 129.5 L 170 132.5 L 144.5 163 L 133 153.5 L 160.5 121 Z " /><path fill="rgb(0,0,0)" stroke="rgb(0,0,0)" stroke-width="1" opacity="1" d="M 54.5 123 Q 61.8 120.4 60 126.5 L 58.5 128 L 50.5 128 L 49 129.5 L 48 139 L 39.5 145 L 36.5 144 Q 34 145.2 35 149 Q 31.7 150.3 33 145.5 L 32.5 144 L 44 135.5 L 45 128.5 L 48.5 125 L 54.5 123 Z " /><path fill="rgb(0,0,0)" stroke="rgb(0,0,0)" stroke-width="1" opacity="1" d="M 103.5 136 L 108 139.5 L 113 150.5 L 110 160.5 Q 110.8 163.8 115.5 163 L 118 162 L 118.5 160 L 119 163.5 L 113.5 173 L 103.5 178 L 96.5 178 Q 87.4 175.5 83 168.5 Q 79.9 164.1 81 155.5 L 83.5 152 Q 86.3 151.4 85 157.5 L 86 160 L 90.5 161 Q 94.3 159.8 93 153.5 L 91 148.5 L 92 143.5 L 94.5 140 L 96 147.5 L 98.5 152 Q 104.3 152.8 105 148.5 Q 106.1 139.1 103.5 136 Z " /><path fill="rgb(29,29,29)" stroke="rgb(29,29,29)" stroke-width="1" opacity="0.9686274509803922" d="M 67.5 31 L 68.5 33 L 67.5 31 Z " /><path fill="rgb(29,29,29)" stroke="rgb(29,29,29)" stroke-width="1" opacity="0.9686274509803922" d="M 132.5 32 L 131.5 34 L 132.5 32 Z " /><path fill="rgb(29,29,29)" stroke="rgb(29,29,29)" stroke-width="1" opacity="0.9686274509803922" d="M 163.5 33 L 166.5 37 L 163.5 33 Z " /><path fill="rgb(29,29,29)" stroke="rgb(29,29,29)" stroke-width="1" opacity="0.9686274509803922" d="M 160.5 34 L 165.5 40 L 160.5 34 Z " /><path fill="rgb(29,29,29)" stroke="rgb(29,29,29)" stroke-width="1" opacity="0.9686274509803922" d="M 52.5 35 L 51.5 37 L 52.5 35 Z " /><path fill="rgb(29,29,29)" stroke="rgb(29,29,29)" stroke-width="1" opacity="0.9686274509803922" d="M 149.5 36 L 151.5 39 L 149.5 36 Z " /><path fill="rgb(29,29,29)" stroke="rgb(29,29,29)" stroke-width="1" opacity="0.9686274509803922" d="M 151.5 52 L 150.5 54 L 151.5 52 Z " /><path fill="rgb(29,29,29)" stroke="rgb(29,29,29)" stroke-width="1" opacity="0.9686274509803922" d="M 73.5 70 L 74.5 72 L 73.5 70 Z " /><path fill="rgb(29,29,29)" stroke="rgb(29,29,29)" stroke-width="1" opacity="0.9686274509803922" d="M 79.5 75 L 80.5 77 L 79.5 75 Z " /><path fill="rgb(29,29,29)" stroke="rgb(29,29,29)" stroke-width="1" opacity="0.9686274509803922" d="M 138.5 76 L 137.5 78 L 138.5 76 Z " /><path fill="rgb(29,29,29)" stroke="rgb(29,29,29)" stroke-width="1" opacity="0.9686274509803922" d="M 71.5 79 L 72.5 81 L 71.5 79 Z " /><path fill="rgb(29,29,29)" stroke="rgb(29,29,29)" stroke-width="1" opacity="0.9686274509803922" d="M 130.5 83 L 129.5 85 L 130.5 83 Z " /><path fill="rgb(29,29,29)" stroke="rgb(29,29,29)" stroke-width="1" opacity="0.9686274509803922" d="M 77.5 84 L 78.5 86 L 77.5 84 Z " /><path fill="rgb(29,29,29)" stroke="rgb(29,29,29)" stroke-width="1" opacity="0.9686274509803922" d="M 20.5 89 L 19.5 91 L 20.5 89 Z " /><path fill="rgb(29,29,29)" stroke="rgb(29,29,29)" stroke-width="1" opacity="0.9686274509803922" d="M 115.5 96 L 114.5 98 L 115.5 96 Z " /><path fill="rgb(29,29,29)" stroke="rgb(29,29,29)" stroke-width="1" opacity="0.9686274509803922" d="M 100.5 109 L 99.5 111 L 100.5 109 Z " /><path fill="rgb(29,29,29)" stroke="rgb(29,29,29)" stroke-width="1" opacity="0.9686274509803922" d="M 132.5 119 L 133.5 121 L 132.5 119 Z " /><path fill="rgb(29,29,29)" stroke="rgb(29,29,29)" stroke-width="1" opacity="0.9686274509803922" d="M 67.5 120 L 66.5 122 L 67.5 120 Z " /><path fill="rgb(29,29,29)" stroke="rgb(29,29,29)" stroke-width="1" opacity="0.9686274509803922" d="M 70.5 120 L 71.5 122 L 70.5 120 Z " /><path fill="rgb(29,29,29)" stroke="rgb(29,29,29)" stroke-width="1" opacity="0.9686274509803922" d="M 66.5 124 L 67.5 126 L 66.5 124 Z " /><path fill="rgb(29,29,29)" stroke="rgb(29,29,29)" stroke-width="1" opacity="0.9686274509803922" d="M 71.5 124 L 70.5 126 L 71.5 124 Z " /><path fill="rgb(29,29,29)" stroke="rgb(29,29,29)" stroke-width="1" opacity="0.9686274509803922" d="M 138.5 124 L 139.5 126 L 138.5 124 Z " /><path fill="rgb(29,29,29)" stroke="rgb(29,29,29)" stroke-width="1" opacity="0.9686274509803922" d="M 156.5 125 L 155.5 127 L 156.5 125 Z " /><path fill="rgb(29,29,29)" stroke="rgb(29,29,29)" stroke-width="1" opacity="0.9686274509803922" d="M 130.5 128 L 131.5 130 L 130.5 128 Z " /><path fill="rgb(29,29,29)" stroke="rgb(29,29,29)" stroke-width="1" opacity="0.9686274509803922" d="M 171.5 130 L 170.5 132 L 171.5 130 Z " /><path fill="rgb(29,29,29)" stroke="rgb(29,29,29)" stroke-width="1" opacity="0.9686274509803922" d="M 136.5 133 L 137.5 135 L 136.5 133 Z " /><path fill="rgb(29,29,29)" stroke="rgb(29,29,29)" stroke-width="1" opacity="0.9686274509803922" d="M 146.5 134 L 145.5 136 L 146.5 134 Z " /><path fill="rgb(29,29,29)" stroke="rgb(29,29,29)" stroke-width="1" opacity="0.9686274509803922" d="M 59.5 139 L 58.5 141 L 59.5 139 Z " /><path fill="rgb(29,29,29)" stroke="rgb(29,29,29)" stroke-width="1" opacity="0.9686274509803922" d="M 166.5 159 L 165.5 161 L 166.5 159 Z " /><path fill="rgb(29,29,29)" stroke="rgb(29,29,29)" stroke-width="1" opacity="0.9686274509803922" d="M 34.5 160 L 39.5 166 L 34.5 160 Z " /><path fill="rgb(29,29,29)" stroke="rgb(29,29,29)" stroke-width="1" opacity="0.9686274509803922" d="M 168.5 161 L 166.5 164 L 168.5 161 Z " /><path fill="rgb(29,29,29)" stroke="rgb(29,29,29)" stroke-width="1" opacity="0.9686274509803922" d="M 33.5 163 L 36.5 167 L 33.5 163 Z " /><path fill="rgb(29,29,29)" stroke="rgb(29,29,29)" stroke-width="1" opacity="0.9686274509803922" d="M 160.5 165 L 159.5 167 L 160.5 165 Z " /><path fill="rgb(29,29,29)" stroke="rgb(29,29,29)" stroke-width="1" opacity="0.9686274509803922" d="M 163.5 166 L 161.5 169 L 163.5 166 Z " /><path fill="rgb(29,29,29)" stroke="rgb(29,29,29)" stroke-width="1" opacity="0.9686274509803922" d="M 85.5 171 L 87.5 174 L 85.5 171 Z " /><path fill="rgb(255,255,255)" stroke="rgb(255,255,255)" stroke-width="1" opacity="1" d="M 89.5 12 L 110.5 12 L 133.5 18 Q 155.2 27.3 169 44.5 Q 179.3 57.2 185 74.5 L 188 88.5 L 188 111.5 Q 181 149.5 155.5 169 Q 142.8 179.3 125.5 185 L 111.5 188 L 88.5 188 Q 51.3 181.2 32 156.5 Q 19.6 142.4 14 121.5 L 12 110.5 L 12 89.5 Q 18.6 51.6 43.5 32 L 66.5 18 L 89.5 12 Z M 94 16 L 90 20 L 94 39 L 97 45 L 98 46 L 105 46 L 110 27 L 110 18 L 109 16 L 94 16 Z M 78 19 L 65 28 L 66 32 L 86 50 L 92 47 L 90 37 L 84 21 L 78 19 Z M 123 19 L 118 21 L 110 40 L 109 47 L 115 50 L 118 49 L 135 32 L 136 28 L 133 24 L 123 19 Z M 56 32 L 54 33 L 46 41 L 46 45 L 69 59 Q 75 60 76 56 L 73 48 L 63 34 L 63 32 L 56 32 Z M 139 32 L 125 54 Q 124 59 129 59 L 133 59 L 139 56 L 154 46 Q 156 45 155 41 L 148 33 L 139 32 Z M 37 46 L 30 56 L 30 60 Q 41 68 58 72 L 62 67 L 52 54 L 45 46 L 37 46 Z M 157 46 L 139 67 L 144 72 Q 160 68 171 60 Q 172 54 169 53 L 163 46 L 157 46 Z M 29 64 L 26 65 L 22 70 L 20 81 L 24 83 L 52 84 Q 55 81 54 76 L 29 64 Z M 171 64 L 147 76 Q 146 81 150 84 L 168 84 L 180 82 L 181 80 L 178 68 Q 176 64 171 64 Z M 70 68 L 67 69 L 65 76 L 90 97 L 69 112 Q 63 115 62 123 L 61 122 L 51 123 L 46 125 L 44 129 L 44 135 L 32 144 L 32 150 L 35 150 Q 37 149 36 145 L 40 146 L 47 141 Q 51 139 49 132 L 52 129 L 60 129 L 60 138 L 57 141 L 52 140 L 44 145 Q 41 146 41 150 Q 39 153 38 149 L 35 153 L 39 155 L 43 155 L 54 147 Q 60 148 63 145 L 66 141 L 68 130 L 75 125 L 72 130 L 80 129 L 104 108 L 135 134 L 135 136 L 128 144 L 131 153 L 145 164 L 173 130 L 160 119 Q 153 120 150 118 L 143 127 L 114 103 L 112 100 L 139 78 Q 140 74 137 73 L 110 94 Q 107 100 104 95 L 134 72 L 133 68 L 131 68 L 100 90 L 74 69 L 70 68 Z M 23 87 L 18 91 Q 16 101 21 105 L 31 104 L 48 99 Q 51 97 49 91 L 29 87 L 23 87 Z M 171 88 L 157 91 L 152 91 L 152 98 Q 163 104 180 106 Q 184 102 182 92 Q 180 86 171 88 Z M 102 134 L 105 144 L 104 149 Q 104 151 100 151 L 96 144 Q 97 137 95 138 L 91 144 Q 90 153 93 157 L 91 160 Q 86 161 86 158 Q 85 152 87 150 L 84 151 L 80 156 Q 79 167 84 172 Q 88 177 97 179 Q 107 180 113 175 Q 118 171 120 165 L 120 156 L 116 162 L 111 161 L 114 151 L 110 141 L 102 134 Z " /><path fill="rgb(255,255,255)" stroke="rgb(255,255,255)" stroke-width="1" opacity="1" d="M 161.5 30 L 162.5 32 L 161.5 30 Z " /><path fill="rgb(255,255,255)" stroke="rgb(255,255,255)" stroke-width="1" opacity="1" d="M 37.5 31 L 31.5 38 L 37.5 31 Z " /><path fill="rgb(255,255,255)" stroke="rgb(255,255,255)" stroke-width="1" opacity="1" d="M 94.5 101 L 98 102 L 96.5 105 L 76 120 L 75.5 124 L 75 120.5 L 76 116.5 L 79.5 113 L 94.5 101 Z " /><path fill="rgb(255,255,255)" stroke="rgb(255,255,255)" stroke-width="1" opacity="1" d="M 68.5 121 L 71 122.5 L 69.5 125 L 67 123.5 L 68.5 121 Z " /><path fill="rgb(255,255,255)" stroke="rgb(255,255,255)" stroke-width="1" opacity="1" d="M 30.5 161 L 31.5 163 L 30.5 161 Z " /><path fill="rgb(57,57,57)" stroke="rgb(57,57,57)" stroke-width="1" opacity="0.9568627450980393" d="M 161.5 31 L 162.5 33 L 161.5 31 Z " /><path fill="rgb(57,57,57)" stroke="rgb(57,57,57)" stroke-width="1" opacity="0.9568627450980393" d="M 37.5 32 L 32.5 38 L 37.5 32 Z " /><path fill="rgb(57,57,57)" stroke="rgb(57,57,57)" stroke-width="1" opacity="0.9568627450980393" d="M 147.5 34 L 148.5 36 L 147.5 34 Z " /><path fill="rgb(57,57,57)" stroke="rgb(57,57,57)" stroke-width="1" opacity="0.9568627450980393" d="M 167.5 37 L 168.5 39 L 167.5 37 Z " /><path fill="rgb(57,57,57)" stroke="rgb(57,57,57)" stroke-width="1" opacity="0.9568627450980393" d="M 40.5 46 L 43 46.5 L 40.5 47 L 40.5 46 Z " /><path fill="rgb(57,57,57)" stroke="rgb(57,57,57)" stroke-width="1" opacity="0.9568627450980393" d="M 158.5 46 L 161 46.5 L 158.5 47 L 158.5 46 Z " /><path fill="rgb(57,57,57)" stroke="rgb(57,57,57)" stroke-width="1" opacity="0.9568627450980393" d="M 136.5 78 L 135.5 80 L 136.5 78 Z " /><path fill="rgb(57,57,57)" stroke="rgb(57,57,57)" stroke-width="1" opacity="0.9568627450980393" d="M 84.5 90 L 85.5 92 L 84.5 90 Z " /><path fill="rgb(57,57,57)" stroke="rgb(57,57,57)" stroke-width="1" opacity="0.9568627450980393" d="M 121.5 91 L 120.5 93 L 121.5 91 Z " /><path fill="rgb(57,57,57)" stroke="rgb(57,57,57)" stroke-width="1" opacity="0.9568627450980393" d="M 48.5 93 L 49 95.5 L 48 95.5 L 48.5 93 Z " /><path fill="rgb(57,57,57)" stroke="rgb(57,57,57)" stroke-width="1" opacity="0.9568627450980393" d="M 109.5 98 L 108.5 100 L 109.5 98 Z " /><path fill="rgb(57,57,57)" stroke="rgb(57,57,57)" stroke-width="1" opacity="0.9568627450980393" d="M 102.5 105 L 101.5 107 L 102.5 105 Z " /><path fill="rgb(57,57,57)" stroke="rgb(57,57,57)" stroke-width="1" opacity="0.9568627450980393" d="M 125.5 113 L 126.5 115 L 125.5 113 Z " /><path fill="rgb(57,57,57)" stroke="rgb(57,57,57)" stroke-width="1" opacity="0.9568627450980393" d="M 154.5 119 L 157 119.5 L 154.5 120 L 154.5 119 Z " /><path fill="rgb(57,57,57)" stroke="rgb(57,57,57)" stroke-width="1" opacity="0.9568627450980393" d="M 143.5 126 L 144.5 128 L 143.5 126 Z " /><path fill="rgb(57,57,57)" stroke="rgb(57,57,57)" stroke-width="1" opacity="0.9568627450980393" d="M 167.5 135 L 166.5 137 L 167.5 135 Z " /><path fill="rgb(57,57,57)" stroke="rgb(57,57,57)" stroke-width="1" opacity="0.9568627450980393" d="M 119.5 158 L 120 160.5 L 119 160.5 L 119.5 158 Z " /><path fill="rgb(57,57,57)" stroke="rgb(57,57,57)" stroke-width="1" opacity="0.9568627450980393" d="M 31.5 161 L 32.5 163 L 31.5 161 Z " /><path fill="rgb(57,57,57)" stroke="rgb(57,57,57)" stroke-width="1" opacity="0.9568627450980393" d="M 164.5 161 L 161.5 165 L 164.5 161 Z " /><path fill="rgb(57,57,57)" stroke="rgb(57,57,57)" stroke-width="1" opacity="0.9568627450980393" d="M 37.5 167 L 38.5 169 L 37.5 167 Z " /><path fill="rgb(90,90,90)" stroke="rgb(90,90,90)" stroke-width="1" opacity="0.9372549019607843" d="M 73.5 38 L 79.5 45 L 73.5 38 Z " /><path fill="rgb(90,90,90)" stroke="rgb(90,90,90)" stroke-width="1" opacity="0.9372549019607843" d="M 169.5 39 L 170.5 41 L 169.5 39 Z " /><path fill="rgb(90,90,90)" stroke="rgb(90,90,90)" stroke-width="1" opacity="0.9372549019607843" d="M 154.5 41 L 155 43.5 L 154 43.5 L 154.5 41 Z " /><path fill="rgb(90,90,90)" stroke="rgb(90,90,90)" stroke-width="1" opacity="0.9372549019607843" d="M 99.5 45 L 103 45.5 L 99.5 46 L 99.5 45 Z " /><path fill="rgb(90,90,90)" stroke="rgb(90,90,90)" stroke-width="1" opacity="0.9372549019607843" d="M 37.5 47 L 36.5 49 L 37.5 47 Z " /><path fill="rgb(90,90,90)" stroke="rgb(90,90,90)" stroke-width="1" opacity="0.9372549019607843" d="M 163.5 47 L 164.5 49 L 163.5 47 Z " /><path fill="rgb(90,90,90)" stroke="rgb(90,90,90)" stroke-width="1" opacity="0.9372549019607843" d="M 51.5 54 L 52.5 56 L 51.5 54 Z " /><path fill="rgb(90,90,90)" stroke="rgb(90,90,90)" stroke-width="1" opacity="0.9372549019607843" d="M 131.5 68 L 133.5 71 L 131.5 68 Z " /><path fill="rgb(90,90,90)" stroke="rgb(90,90,90)" stroke-width="1" opacity="0.9372549019607843" d="M 68.5 69 L 67.5 71 L 68.5 69 Z " /><path fill="rgb(90,90,90)" stroke="rgb(90,90,90)" stroke-width="1" opacity="0.9372549019607843" d="M 41.5 83 L 49 83.5 L 41.5 84 L 41.5 83 Z " /><path fill="rgb(90,90,90)" stroke="rgb(90,90,90)" stroke-width="1" opacity="0.9372549019607843" d="M 152.5 83 L 159 83.5 L 152.5 84 L 152.5 83 Z " /><path fill="rgb(90,90,90)" stroke="rgb(90,90,90)" stroke-width="1" opacity="0.9372549019607843" d="M 127.5 86 L 126.5 88 L 127.5 86 Z " /><path fill="rgb(90,90,90)" stroke="rgb(90,90,90)" stroke-width="1" opacity="0.9372549019607843" d="M 181.5 92 L 182 94.5 L 181 94.5 L 181.5 92 Z " /><path fill="rgb(90,90,90)" stroke="rgb(90,90,90)" stroke-width="1" opacity="0.9372549019607843" d="M 91.5 96 L 92.5 98 L 90 97.5 L 91.5 96 Z " /><path fill="rgb(90,90,90)" stroke="rgb(90,90,90)" stroke-width="1" opacity="0.9372549019607843" d="M 118.5 107 L 119.5 109 L 118.5 107 Z " /><path fill="rgb(90,90,90)" stroke="rgb(90,90,90)" stroke-width="1" opacity="0.9372549019607843" d="M 79.5 112 L 78.5 114 L 79.5 112 Z " /><path fill="rgb(90,90,90)" stroke="rgb(90,90,90)" stroke-width="1" opacity="0.9372549019607843" d="M 90.5 118 L 89.5 120 L 90.5 118 Z " /><path fill="rgb(90,90,90)" stroke="rgb(90,90,90)" stroke-width="1" opacity="0.9372549019607843" d="M 157.5 119 Q 159.8 118.3 159 120.5 L 161 120.5 L 158 122.5 L 159 121.5 L 157.5 119 Z " /><path fill="rgb(90,90,90)" stroke="rgb(90,90,90)" stroke-width="1" opacity="0.9372549019607843" d="M 83.5 124 L 82.5 126 L 83.5 124 Z " /><path fill="rgb(90,90,90)" stroke="rgb(90,90,90)" stroke-width="1" opacity="0.9372549019607843" d="M 47.5 125 L 46.5 127 L 47.5 125 Z " /><path fill="rgb(90,90,90)" stroke="rgb(90,90,90)" stroke-width="1" opacity="0.9372549019607843" d="M 142.5 127 L 145 130.5 L 143 129.5 L 142.5 127 Z " /><path fill="rgb(90,90,90)" stroke="rgb(90,90,90)" stroke-width="1" opacity="0.9372549019607843" d="M 143.5 138 L 143.5 141 Q 140.5 139.5 143.5 138 Z " /><path fill="rgb(90,90,90)" stroke="rgb(90,90,90)" stroke-width="1" opacity="0.9372549019607843" d="M 163.5 140 L 162.5 142 L 163.5 140 Z " /><path fill="rgb(90,90,90)" stroke="rgb(90,90,90)" stroke-width="1" opacity="0.9372549019607843" d="M 36.5 144 L 35.5 146 L 36.5 144 Z " /><path fill="rgb(90,90,90)" stroke="rgb(90,90,90)" stroke-width="1" opacity="0.9372549019607843" d="M 137.5 145 L 138.5 147 L 137.5 145 Z " /><path fill="rgb(90,90,90)" stroke="rgb(90,90,90)" stroke-width="1" opacity="0.9372549019607843" d="M 54.5 146 L 57 146.5 L 54.5 147 L 54.5 146 Z " /><path fill="rgb(90,90,90)" stroke="rgb(90,90,90)" stroke-width="1" opacity="0.9372549019607843" d="M 131.5 151 L 134 152.5 L 132.5 152 L 131.5 151 Z " /><path fill="rgb(90,90,90)" stroke="rgb(90,90,90)" stroke-width="1" opacity="0.9372549019607843" d="M 80.5 157 L 81 160.5 L 80 160.5 L 80.5 157 Z " /><path fill="rgb(90,90,90)" stroke="rgb(90,90,90)" stroke-width="1" opacity="0.9372549019607843" d="M 39.5 169 L 40.5 171 L 39.5 169 Z " /><path fill="rgb(150,150,150)" stroke="rgb(150,150,150)" stroke-width="1" opacity="0.8705882352941177" d="M 94.5 11 L 106 11.5 L 94.5 12 L 94.5 11 Z " /><path fill="rgb(150,150,150)" stroke="rgb(150,150,150)" stroke-width="1" opacity="0.8705882352941177" d="M 108.5 16 L 109.5 18 L 108.5 16 Z " /><path fill="rgb(150,150,150)" stroke="rgb(150,150,150)" stroke-width="1" opacity="0.8705882352941177" d="M 90.5 20 L 91 22.5 L 90 22.5 L 90.5 20 Z " /><path fill="rgb(150,150,150)" stroke="rgb(150,150,150)" stroke-width="1" opacity="0.8705882352941177" d="M 133.5 25 L 134.5 27 L 133.5 25 Z " /><path fill="rgb(150,150,150)" stroke="rgb(150,150,150)" stroke-width="1" opacity="0.8705882352941177" d="M 158.5 28 L 159.5 30 L 158.5 28 Z " /><path fill="rgb(150,150,150)" stroke="rgb(150,150,150)" stroke-width="1" opacity="0.8705882352941177" d="M 40.5 29 L 39.5 31 L 40.5 29 Z " /><path fill="rgb(150,150,150)" stroke="rgb(150,150,150)" stroke-width="1" opacity="0.8705882352941177" d="M 157.5 32 L 158.5 34 L 157.5 32 Z " /><path fill="rgb(150,150,150)" stroke="rgb(150,150,150)" stroke-width="1" opacity="0.8705882352941177" d="M 41.5 33 L 40.5 35 L 41.5 33 Z " /><path fill="rgb(150,150,150)" stroke="rgb(150,150,150)" stroke-width="1" opacity="0.8705882352941177" d="M 69.5 34 L 72.5 38 L 69.5 34 Z " /><path fill="rgb(150,150,150)" stroke="rgb(150,150,150)" stroke-width="1" opacity="0.8705882352941177" d="M 129.5 36 L 119.5 47 L 129.5 36 Z " /><path fill="rgb(150,150,150)" stroke="rgb(150,150,150)" stroke-width="1" opacity="0.8705882352941177" d="M 30.5 39 L 29.5 41 L 30.5 39 Z " /><path fill="rgb(150,150,150)" stroke="rgb(150,150,150)" stroke-width="1" opacity="0.8705882352941177" d="M 34.5 40 L 33.5 42 L 34.5 40 Z " /><path fill="rgb(150,150,150)" stroke="rgb(150,150,150)" stroke-width="1" opacity="0.8705882352941177" d="M 80.5 45 L 81.5 47 L 80.5 45 Z " /><path fill="rgb(150,150,150)" stroke="rgb(150,150,150)" stroke-width="1" opacity="0.8705882352941177" d="M 156.5 46 L 152.5 51 L 156.5 46 Z " /><path fill="rgb(150,150,150)" stroke="rgb(150,150,150)" stroke-width="1" opacity="0.8705882352941177" d="M 45.5 47 L 47.5 50 L 45.5 47 Z " /><path fill="rgb(150,150,150)" stroke="rgb(150,150,150)" stroke-width="1" opacity="0.8705882352941177" d="M 35.5 49 L 34.5 51 L 35.5 49 Z " /><path fill="rgb(150,150,150)" stroke="rgb(150,150,150)" stroke-width="1" opacity="0.8705882352941177" d="M 75.5 55 L 73.5 58 L 75.5 55 Z " /><path fill="rgb(150,150,150)" stroke="rgb(150,150,150)" stroke-width="1" opacity="0.8705882352941177" d="M 125.5 55 L 128.5 59 L 125.5 55 Z " /><path fill="rgb(150,150,150)" stroke="rgb(150,150,150)" stroke-width="1" opacity="0.8705882352941177" d="M 147.5 56 L 145.5 59 L 147.5 56 Z " /><path fill="rgb(150,150,150)" stroke="rgb(150,150,150)" stroke-width="1" opacity="0.8705882352941177" d="M 30.5 59 L 31.5 61 L 30.5 59 Z " /><path fill="rgb(150,150,150)" stroke="rgb(150,150,150)" stroke-width="1" opacity="0.8705882352941177" d="M 24.5 66 L 23.5 68 L 24.5 66 Z " /><path fill="rgb(150,150,150)" stroke="rgb(150,150,150)" stroke-width="1" opacity="0.8705882352941177" d="M 131.5 77 L 130.5 79 L 131.5 77 Z " /><path fill="rgb(150,150,150)" stroke="rgb(150,150,150)" stroke-width="1" opacity="0.8705882352941177" d="M 133.5 81 L 132.5 83 L 133.5 81 Z " /><path fill="rgb(150,150,150)" stroke="rgb(150,150,150)" stroke-width="1" opacity="0.8705882352941177" d="M 37.5 83 L 41 83.5 L 37.5 84 L 37.5 83 Z " /><path fill="rgb(150,150,150)" stroke="rgb(150,150,150)" stroke-width="1" opacity="0.8705882352941177" d="M 159.5 83 L 164 83.5 L 159.5 84 L 159.5 83 Z " /><path fill="rgb(150,150,150)" stroke="rgb(150,150,150)" stroke-width="1" opacity="0.8705882352941177" d="M 18.5 91 L 19 97.5 L 18 97.5 L 18.5 91 Z " /><path fill="rgb(150,150,150)" stroke="rgb(150,150,150)" stroke-width="1" opacity="0.8705882352941177" d="M 99.5 91 L 100.5 93 L 99.5 91 Z " /><path fill="rgb(150,150,150)" stroke="rgb(150,150,150)" stroke-width="1" opacity="0.8705882352941177" d="M 153.5 91 L 155 91.5 L 152.5 93 L 153.5 91 Z " /><path fill="rgb(150,150,150)" stroke="rgb(150,150,150)" stroke-width="1" opacity="0.8705882352941177" d="M 188.5 92 L 189 94.5 L 188 94.5 L 188.5 92 Z " /><path fill="rgb(150,150,150)" stroke="rgb(150,150,150)" stroke-width="1" opacity="0.8705882352941177" d="M 11.5 94 L 12 105.5 L 11 105.5 L 11.5 94 Z " /><path fill="rgb(150,150,150)" stroke="rgb(150,150,150)" stroke-width="1" opacity="0.8705882352941177" d="M 118.5 94 L 117.5 96 L 118.5 94 Z " /><path fill="rgb(150,150,150)" stroke="rgb(150,150,150)" stroke-width="1" opacity="0.8705882352941177" d="M 181.5 95 L 182 98.5 L 181 98.5 L 181.5 95 Z " /><path fill="rgb(150,150,150)" stroke="rgb(150,150,150)" stroke-width="1" opacity="0.8705882352941177" d="M 105.5 96 L 108 96.5 Q 105.9 99.8 105.5 96 Z " /><path fill="rgb(150,150,150)" stroke="rgb(150,150,150)" stroke-width="1" opacity="0.8705882352941177" d="M 192.5 96 L 193 103.5 L 192 103.5 L 192.5 96 Z " /><path fill="rgb(150,150,150)" stroke="rgb(150,150,150)" stroke-width="1" opacity="0.8705882352941177" d="M 93.5 98 L 95 100.5 L 93 101.5 L 93 99.5 L 93.5 98 Z " /><path fill="rgb(150,150,150)" stroke="rgb(150,150,150)" stroke-width="1" opacity="0.8705882352941177" d="M 111.5 101 L 112.5 103 L 111.5 101 Z " /><path fill="rgb(150,150,150)" stroke="rgb(150,150,150)" stroke-width="1" opacity="0.8705882352941177" d="M 98.5 102 L 100 104.5 L 99 104.5 L 98.5 102 Z " /><path fill="rgb(150,150,150)" stroke="rgb(150,150,150)" stroke-width="1" opacity="0.8705882352941177" d="M 188.5 105 L 189 107.5 L 188 107.5 L 188.5 105 Z " /><path fill="rgb(150,150,150)" stroke="rgb(150,150,150)" stroke-width="1" opacity="0.8705882352941177" d="M 104.5 107 L 105.5 109 L 104.5 107 Z " /><path fill="rgb(150,150,150)" stroke="rgb(150,150,150)" stroke-width="1" opacity="0.8705882352941177" d="M 84.5 108 L 83.5 110 L 84.5 108 Z " /><path fill="rgb(150,150,150)" stroke="rgb(150,150,150)" stroke-width="1" opacity="0.8705882352941177" d="M 88.5 111 L 87.5 113 L 88.5 111 Z " /><path fill="rgb(150,150,150)" stroke="rgb(150,150,150)" stroke-width="1" opacity="0.8705882352941177" d="M 110.5 112 L 111.5 114 L 110.5 112 Z " /><path fill="rgb(150,150,150)" stroke="rgb(150,150,150)" stroke-width="1" opacity="0.8705882352941177" d="M 96.5 113 L 95.5 115 L 96.5 113 Z " /><path fill="rgb(150,150,150)" stroke="rgb(150,150,150)" stroke-width="1" opacity="0.8705882352941177" d="M 77.5 114 L 76.5 116 L 77.5 114 Z " /><path fill="rgb(150,150,150)" stroke="rgb(150,150,150)" stroke-width="1" opacity="0.8705882352941177" d="M 162.5 121 L 163.5 123 L 162.5 121 Z " /><path fill="rgb(150,150,150)" stroke="rgb(150,150,150)" stroke-width="1" opacity="0.8705882352941177" d="M 73.5 125 L 75 126.5 L 73.5 129 L 77 129.5 L 72 130 L 71 127.5 L 73.5 125 Z " /><path fill="rgb(150,150,150)" stroke="rgb(150,150,150)" stroke-width="1" opacity="0.8705882352941177" d="M 144.5 128 L 145 129.5 L 143 130.5 L 144.5 128 Z " /><path fill="rgb(150,150,150)" stroke="rgb(150,150,150)" stroke-width="1" opacity="0.8705882352941177" d="M 60.5 131 L 61 135.5 L 60 135.5 L 60.5 131 Z " /><path fill="rgb(150,150,150)" stroke="rgb(150,150,150)" stroke-width="1" opacity="0.8705882352941177" d="M 134.5 136 L 133.5 138 L 134.5 136 Z " /><path fill="rgb(150,150,150)" stroke="rgb(150,150,150)" stroke-width="1" opacity="0.8705882352941177" d="M 129.5 142 L 129 143.5 L 128.5 145 L 128 143.5 L 129.5 142 Z " /><path fill="rgb(150,150,150)" stroke="rgb(150,150,150)" stroke-width="1" opacity="0.8705882352941177" d="M 139.5 143 L 138.5 145 L 139.5 143 Z " /><path fill="rgb(150,150,150)" stroke="rgb(150,150,150)" stroke-width="1" opacity="0.8705882352941177" d="M 159.5 145 L 158.5 147 L 159.5 145 Z " /><path fill="rgb(150,150,150)" stroke="rgb(150,150,150)" stroke-width="1" opacity="0.8705882352941177" d="M 41.5 147 L 42 149.5 L 41 149.5 L 41.5 147 Z " /><path fill="rgb(150,150,150)" stroke="rgb(150,150,150)" stroke-width="1" opacity="0.8705882352941177" d="M 137.5 147 L 136.5 149 L 137.5 147 Z " /><path fill="rgb(150,150,150)" stroke="rgb(150,150,150)" stroke-width="1" opacity="0.8705882352941177" d="M 35.5 148 L 34.5 150 L 35.5 148 Z " /><path fill="rgb(150,150,150)" stroke="rgb(150,150,150)" stroke-width="1" opacity="0.8705882352941177" d="M 134.5 149 L 133.5 151 L 134.5 149 Z " /><path fill="rgb(150,150,150)" stroke="rgb(150,150,150)" stroke-width="1" opacity="0.8705882352941177" d="M 154.5 151 L 153.5 153 L 154.5 151 Z " /><path fill="rgb(150,150,150)" stroke="rgb(150,150,150)" stroke-width="1" opacity="0.8705882352941177" d="M 35.5 152 L 36.5 154 L 35.5 152 Z " /><path fill="rgb(150,150,150)" stroke="rgb(150,150,150)" stroke-width="1" opacity="0.8705882352941177" d="M 132.5 153 L 134.5 156 L 132.5 153 Z " /><path fill="rgb(150,150,150)" stroke="rgb(150,150,150)" stroke-width="1" opacity="0.8705882352941177" d="M 32.5 157 L 33.5 159 L 32.5 157 Z " /><path fill="rgb(150,150,150)" stroke="rgb(150,150,150)" stroke-width="1" opacity="0.8705882352941177" d="M 149.5 157 L 148.5 159 L 149.5 157 Z " /><path fill="rgb(150,150,150)" stroke="rgb(150,150,150)" stroke-width="1" opacity="0.8705882352941177" d="M 172.5 157 L 171.5 159 L 172.5 157 Z " /><path fill="rgb(150,150,150)" stroke="rgb(150,150,150)" stroke-width="1" opacity="0.8705882352941177" d="M 28.5 158 L 29.5 160 L 28.5 158 Z " /><path fill="rgb(150,150,150)" stroke="rgb(150,150,150)" stroke-width="1" opacity="0.8705882352941177" d="M 139.5 159 L 140.5 161 L 139.5 159 Z " /><path fill="rgb(150,150,150)" stroke="rgb(150,150,150)" stroke-width="1" opacity="0.8705882352941177" d="M 158.5 171 L 157.5 173 L 158.5 171 Z " /><path fill="rgb(150,150,150)" stroke="rgb(150,150,150)" stroke-width="1" opacity="0.8705882352941177" d="M 98.5 178 L 102 178.5 L 98.5 179 L 98.5 178 Z " /><path fill="rgb(150,150,150)" stroke="rgb(150,150,150)" stroke-width="1" opacity="0.8705882352941177" d="M 92.5 188 L 95 188.5 L 92.5 189 L 92.5 188 Z " /><path fill="rgb(150,150,150)" stroke="rgb(150,150,150)" stroke-width="1" opacity="0.8705882352941177" d="M 105.5 188 L 108 188.5 L 105.5 189 L 105.5 188 Z " /><path fill="rgb(150,150,150)" stroke="rgb(150,150,150)" stroke-width="1" opacity="0.8705882352941177" d="M 96.5 192 L 104 192.5 L 96.5 193 L 96.5 192 Z " /></svg>